<svg version="1.2" xmlns="http://www.w3.org/2000/svg" viewBox="0 0 869 270" width="869" height="270">
	<title>whispererofenigma</title>
	<style>
		.s0 { fill: #ffffff } 
		.s1 { fill: #ffc94a } 
	</style>
	<path id="of" fill-rule="evenodd" class="s0" d="m280.1 269.1c69.6 0 125.7-98.2 157.2-148.7l5.9-9.4c11.5-2.7 28.6-3.9 54-3.9l2.4-1.8c-25.7 0-43.1 1.2-55.2 3.9l6.2-10.4c84.4-16.9 127.7-98.8 92.6-98.8-30.4 0-73.7 57.9-101.5 99.1-7 0.9-14.4 1.5-21.8 1.5-3.8 0-7.1-0.3-10-0.6-0.6-7.1-3.3-12.2-8-12.2-2.9 0-5 1.8-5 5.1 0 4.1 4.4 6.5 11.2 8v0.9c0 24.9-28.9 61.7-45.4 61.7-4.4 0-5.9-2.1-5.9-5.4 0-15.1 31.6-51.9 41-51.9 0.9 0 0.6-1.2-1.5-1.2-12.1 0-46 21.7-46 45.7 0 6.8 4.1 14.5 11.8 14.5 18.6 0 47.8-36.7 47.8-63.4v-0.6c2.9 0.3 6.5 0.6 10 0.6 7.1 0 14.2-0.6 21-1.5l-7.7 11.8c-23.6 8.9-18 28.8-32.7 52.6-30.7 49.2-70.8 102.9-119.5 102.9-70.8 0-54.3-85.1 4.4-85.1 14.5 0 23.6 5.9 28 13.6 0.9 1.5 2.4 0.3 1.5-1.2-5-8-14.4-13.9-29.5-13.9-60.2 0-79 88.1-5.3 88.1zm261.6-267.3c32.5 0-8.8 78.3-89.9 95.5 25.6-40.9 62.5-95.5 89.9-95.5zm-110 112.7c-7.6 11.9-14.7 23.2-21.8 35 6.2-16.6 5.6-28.2 21.8-35z"/>
	<path id="ENIGMA" fill-rule="evenodd" class="s0" d="m543.1 124.6h0.7v-7.6h-0.7zm0.7 0v13.6h28.1v7.8h-37.4v-49.5h36.4v7.8h-27.1v12.8h24.1v7.5zm45.6 21.4v-49.5h7.6l27.5 33.6v-33.6h9.2v49.5h-7.7l-27.4-33.5v33.5zm9.2-38.2h-3.8l3.8 4.7zm25.9 26.8h3.8l-3.8-4.6zm29.7 11.3v-49.4h9.3v49.4zm53.1 0.7q-5.9 0-10.8-1.9-4.9-1.9-8.5-5.3-3.6-3.5-5.6-8.1-2-4.6-2-10.1 0-5.6 2-10.2 2-4.6 5.6-8.1 3.7-3.4 8.6-5.3 4.9-1.9 10.9-1.9 6.2 0 11.3 2.1 5.1 2 8.6 6l-5.8 5.6q-2.9-2.9-6.3-4.2-3.4-1.4-7.5-1.4-4 0-7.3 1.3-3.3 1.2-5.7 3.6-2.4 2.3-3.8 5.5-1.3 3.1-1.3 7 0 3.7 1.3 6.9 1.4 3.2 3.8 5.6 2.4 2.3 5.7 3.6 3.3 1.2 7.3 1.2 3.7 0 7.1-1.1 1.6-0.6 3.1-1.4v-15.3h8.7v19.6q-3.8 3.1-9 4.7-5.1 1.6-10.4 1.6zm14.2-13.2q-1.7 1.5-3.5 2.6v3.1l8.7 1.2zm24.5 12.4v-49.4h7.6l19.8 32.7 19.5-32.7h7.6l0.2 49.4h-9v-32.8l-16.3 27.2h-4.2l-16.4-26.7v32.3zm8.9-35.8h-2.2l2.2 3.5zm38.7 0h-1.8v3zm-22.1 22.4h4l-2-3.3zm42.6 13.3l22.5-49.4h9.1l22.5 49.4h-9.7l-5-11.4h-24.9l-5 11.4zm28.8-44.5h-3.7l1.8 4.3zm13.5 33.1l-2.5-7.2h-3.5l3.1 7.2zm-29.3-7.2l-2.6 7.2h4.1l3.1-7.2zm23.4 0l-9.3-21.6-9.4 21.6z"/>
	<path id="Whisperer" fill-rule="evenodd" class="s1" d="m59.7 99.9h12.5v0.3q-2.4 0.7-3.9 2.2-1.4 1.6-3.1 5.8l-14.4 37-6.4 4.4 0.2-1.4-9.9-25.6-8.6 22.6-6.4 4.4 0.2-1.4-16.8-43.6q-1.2-3.1-3-4.7h17v0.3q-1.9 0.1-3.1 0.5-1.2 0.4-2.1 1.3-0.9 0.9-0.8 2.4 0.1 1.4 0.8 3.7l13.4 35.3 8.6-22.8-6.1-16q-1.2-3.1-3-4.7h17v0.3q-1.9 0.1-3.1 0.5-1.2 0.4-2.1 1.3-0.9 0.9-0.8 2.4 0.1 1.4 0.9 3.7l13.3 35.3 13.7-35.3q0.9-2.2 1-3.6 0.1-1.4-0.7-2.3-0.7-0.9-1.7-1.3-1-0.4-2.6-0.7zm42.9 47.6l0.4-4.7v-16.2q0-9.6-7.3-9.6-1 0-2.2 0.3-1.1 0.2-1.8 0.5-0.7 0.2-1.9 0.9-1.2 0.7-1.7 1-0.4 0.2-1.8 1.2-1.4 0.9-1.7 1.1v18.9q0 3 0.8 4.4 0.7 1.4 3.1 2v0.2h-10.7l0.6-4.2v-40.6q0-1.9-1.2-2-1.2-0.2-4.3 0.9v-0.4l12-5.7-0.3 2.7v22.3q0.1 0 1.4-0.9 1.3-0.9 1.7-1.1 0.4-0.3 1.6-1 1.3-0.8 1.9-1.1 0.7-0.3 1.9-0.8 1.2-0.6 2.1-0.8 1-0.2 2.1-0.5 1.2-0.2 2.2-0.2 4.1 0 6.9 2.7 2.8 2.8 2.8 9.7v14.7q0 2.7 0.6 4 0.5 1.3 2.1 2.3zm18.8-40.4q-1.7 0-2.8-1.1-1.1-1.1-1.1-2.8 0-1.6 1.1-2.8 1.1-1.1 2.8-1.1 1.6 0 2.8 1.1 1.1 1.2 1.1 2.8 0 1.7-1.1 2.8-1.2 1.1-2.8 1.1zm-3.1 40.4l0.4-4.7v-26.1q-1.5-0.9-4.1-1.2v-0.3l10.7-1-0.3 5v22q0 2.7 0.5 4 0.6 1.3 2.1 2.3zm26.8 0.5q-8 0-13.1-4l3.8-6.3h0.1q0 4.1 3.7 6.7 3.7 2.6 8 2.6 6.3 0 6.3-5.9 0-3.2-2.2-4.8-2.1-1.6-6.3-2.3-3.7-0.5-6.4-1.7-2.6-1.2-3.8-2.7-1.3-1.5-1.9-2.9-0.5-1.4-0.5-3 0-4.4 3.7-7 3.7-2.6 9.2-2.6 3.7 0 7 1.1 3.4 1.1 5.4 2.8l-4.3 6.4h-0.1q0.2-4.1-3.2-6.7-3.3-2.5-7.2-2.5-3 0-4.4 1.6-1.3 1.7-1.3 4 0 3.3 2.5 4.8 2.4 1.5 6.5 2.1 12.1 1.9 12 9.8 0 4.6-3.6 7.6-3.7 2.9-9.9 2.9zm16.6-31.2q9.6-2.7 18.7-2.7 8.9 0 13.6 4.5 4.6 4.5 4.6 11.8 0 7.7-5.1 12.7-5.1 4.9-13.7 4.9-3.5 0-7.4-1.1v8.8q0 2.8 0.7 4 0.7 1.3 3 2.3v0.2l-13-2.2v-0.2q1.8-0.5 2.4-1.5 0.7-1.1 0.7-3.7v-36.3q-1.6-1-4.5-1.2zm10.7 26.3q5.2 3.7 9.9 3.7 4.4 0 7-3.1 2.7-3.1 2.7-9.9 0-8.2-3.7-13.4-3.7-5.3-9.7-5.3-3.3 0-6.2 1.3zm63-2.4l0.3 0.3q-1.6 2.9-5.5 5-4 2-9 2-7.3 0-12.3-4.4-4.9-4.3-4.9-11.8 0-8 5.6-12.8 5.5-4.9 13.2-4.9 7.5 0 10.9 4.8 2.4 3.4 1.2 6.7-1.3 3-4.9 3h-19.4q0.1 7.1 3.8 11.7 3.7 4.7 9.7 4.7 3.1 0 6.5-1.2 3.4-1.1 4.8-3.1zm-8.7-22.7q-2.5-2.7-6.3-2.7-4.2 0-6.9 3.3-2.6 3.2-2.9 8.9l16.7-0.2q1.9 0 2-2.8 0.1-3.5-2.6-6.5zm32.2-3.8q1.9 0 3.6 0.8l-5.8 9.5h-0.3q1.2-3.4 0.5-4.9-0.6-1.6-2.5-1.6-2.4 0-4.1 2.6-1.6 2.6-2.2 6.5v14.1q0 2.7 0.6 4 0.5 1.3 2.1 2.3h-9.3l0.4-4.7v-26.1q-1.5-1-4.2-1.2v-0.3l10.8-1-0.4 5v2.2h0.9q1.2-3.3 3.8-5.2 2.7-2 6.1-2zm36 26.5l0.3 0.3q-1.6 2.9-5.5 5-4 2-9 2-7.3 0-12.3-4.4-4.9-4.3-4.9-11.8 0-8 5.6-12.8 5.5-4.9 13.2-4.9 7.5 0 10.9 4.8 2.4 3.4 1.1 6.7-1.2 3-4.8 3h-19.4q0.1 7.1 3.8 11.7 3.7 4.7 9.7 4.7 3.1 0 6.5-1.2 3.3-1.1 4.8-3.1zm-8.7-22.7q-2.5-2.7-6.3-2.7-4.3 0-6.9 3.3-2.6 3.2-2.9 8.9l16.7-0.2q1.9 0 2-2.8 0.1-3.5-2.6-6.5zm32.2-3.8q1.9 0 3.6 0.8l-5.8 9.5h-0.3q1.2-3.4 0.5-4.9-0.6-1.6-2.5-1.6-2.4 0-4.1 2.6-1.6 2.6-2.2 6.5v14.1q0 2.7 0.6 4 0.5 1.3 2.1 2.3h-9.3l0.4-4.7v-26.1q-1.5-1-4.2-1.2v-0.3l10.8-1-0.4 5v2.2h0.9q1.2-3.3 3.8-5.2 2.7-2 6.1-2z"/>
</svg>